<svg width="16" height="16" viewBox="0 0 16 16" fill="none" xmlns="http://www.w3.org/2000/svg">
<path d="M3.33333 0C2.44928 0 1.60143 0.351189 0.976311 0.976311C0.351189 1.60143 0 2.44928 0 3.33333V12.6667C0 13.5507 0.351189 14.3986 0.976311 15.0237C1.60143 15.6488 2.44928 16 3.33333 16H12.6667C13.5507 16 14.3986 15.6488 15.0237 15.0237C15.6488 14.3986 16 13.5507 16 12.6667V3.33333C16 2.44928 15.6488 1.60143 15.0237 0.976311C14.3986 0.351189 13.5507 0 12.6667 0H3.33333ZM11.8053 6.472L7.13867 11.1387C7.07674 11.2008 7.00317 11.25 6.92218 11.2836C6.84118 11.3172 6.75436 11.3345 6.66667 11.3345C6.57898 11.3345 6.49215 11.3172 6.41116 11.2836C6.33016 11.25 6.25659 11.2008 6.19467 11.1387L4.19467 9.13867C4.13268 9.07668 4.08351 9.0031 4.04997 8.92211C4.01642 8.84113 3.99916 8.75433 3.99916 8.66667C3.99916 8.57901 4.01642 8.49221 4.04997 8.41122C4.08351 8.33024 4.13268 8.25665 4.19467 8.19467C4.31985 8.06948 4.48963 7.99916 4.66667 7.99916C4.75433 7.99916 4.84113 8.01642 4.92211 8.04997C5.0031 8.08351 5.07668 8.13268 5.13867 8.19467L6.66667 9.724L10.8613 5.528C10.9865 5.40282 11.1563 5.33249 11.3333 5.33249C11.5104 5.33249 11.6802 5.40282 11.8053 5.528C11.9305 5.65318 12.0008 5.82297 12.0008 6C12.0008 6.17703 11.9305 6.34682 11.8053 6.472V6.472Z" fill="current"/>
</svg>
