<svg width="34" height="34" viewBox="0 0 34 34" fill="none" xmlns="http://www.w3.org/2000/svg">
<path d="M5.82001 7.00011C3.35561 9.74742 1.99492 13.3094 2.00001 17.0001C2.00001 18.1451 2.12835 19.2618 2.37168 20.3334M5.82001 7.00011C7.65531 4.94984 10.0191 3.44373 12.6527 2.64649C15.2864 1.84926 18.0886 1.79159 20.7529 2.47981C23.4171 3.16802 25.8408 4.57562 27.7589 6.54864C29.677 8.52167 31.0156 10.9841 31.6283 13.6668M5.82001 7.00011H17M31.6283 13.6668C32.3685 16.9094 32.0099 20.306 30.609 23.3226C29.2081 26.3392 26.8443 28.8047 23.8894 30.3313C20.9344 31.8579 17.5558 32.3591 14.285 31.7561C11.0141 31.1531 8.03634 29.4801 5.82001 27.0001M31.6283 13.6668H22M2.37168 20.3334H18.6667M2.37168 20.3334C2.93586 22.8126 4.12266 25.1071 5.82001 27.0001M5.82001 27.0001H15.3333M17 13.6668H13.6667" stroke="current" stroke-width="3.33333" stroke-linecap="round" stroke-linejoin="round"/>
</svg>
