<svg width="16" height="16" viewBox="0 0 16 16" fill="none" xmlns="http://www.w3.org/2000/svg">
<path d="M0 3.33333C0 2.44928 0.351189 1.60143 0.976311 0.976311C1.60143 0.351189 2.44928 0 3.33333 0H12.6667C13.5507 0 14.3986 0.351189 15.0237 0.976311C15.6488 1.60143 16 2.44928 16 3.33333V12.6667C16 13.5507 15.6488 14.3986 15.0237 15.0237C14.3986 15.6488 13.5507 16 12.6667 16H3.33333C2.44928 16 1.60143 15.6488 0.976311 15.0237C0.351189 14.3986 0 13.5507 0 12.6667V3.33333ZM3.33333 1.33333C2.8029 1.33333 2.29419 1.54405 1.91912 1.91912C1.54405 2.29419 1.33333 2.8029 1.33333 3.33333V12.6667C1.33333 13.1971 1.54405 13.7058 1.91912 14.0809C2.29419 14.456 2.8029 14.6667 3.33333 14.6667H12.6667C13.1971 14.6667 13.7058 14.456 14.0809 14.0809C14.456 13.7058 14.6667 13.1971 14.6667 12.6667V3.33333C14.6667 2.8029 14.456 2.29419 14.0809 1.91912C13.7058 1.54405 13.1971 1.33333 12.6667 1.33333H3.33333Z" fill="current"/>
</svg>
